<svg xmlns="http://www.w3.org/2000/svg" viewBox="0 0 512 512" role="img" aria-label="KidSpeak Dictionary app icon">
  <rect width="512" height="512" rx="96" fill="#081426"/>
  <circle cx="104" cy="96" r="8" fill="#fef3c7"/>
  <circle cx="380" cy="112" r="10" fill="#fef3c7"/>
  <circle cx="424" cy="260" r="6" fill="#ffffff"/>
  <path d="M132 160h228c28 0 52 23 52 52v142c0 28-24 52-52 52H132c-28 0-52-24-52-52V212c0-29 24-52 52-52Z" fill="#f8fafc"/>
  <path d="M126 160h112c24 0 44 20 44 44v202H138c-25 0-46-20-46-46V194c0-19 12-34 34-34Z" fill="#dbeafe"/>
  <path d="M282 204c0-24 20-44 44-44h64c18 0 30 15 30 34v166c0 26-21 46-46 46H282V204Z" fill="#bfdbfe"/>
  <path d="M282 190v216" stroke="#1d4ed8" stroke-width="18" stroke-linecap="round"/>
  <path d="M142 238h84M142 288h86M326 238h54M326 288h58" stroke="#172033" stroke-width="18" stroke-linecap="round"/>
  <path d="M178 102l44 70h-88l44-70Z" fill="#facc15"/>
  <path d="M178 102l18 70h-62l44-70Z" fill="#fde68a"/>
</svg>
